<?xml version="1.0" encoding="UTF-8"?>
<svg xmlns="http://www.w3.org/2000/svg" xmlns:xlink="http://www.w3.org/1999/xlink" width="24px" height="24px" viewBox="0 0 24 24" version="1.1">
<g id="surface1">
<path style=" stroke:none;fill-rule:nonzero;fill:rgb(0%,0%,0%);fill-opacity:1;" d="M 12.300781 1.28125 L 12.054688 1.28125 C 10.589844 1.28125 9.394531 2.476562 9.394531 3.941406 C 9.394531 4.273438 9.457031 4.589844 9.566406 4.882812 C 8.359375 5.128906 7.445312 6.203125 7.445312 7.488281 C 7.445312 7.835938 7.511719 8.167969 7.636719 8.472656 C 6.519531 8.792969 5.671875 9.863281 5.671875 11.089844 C 5.671875 11.421875 5.738281 11.742188 5.851562 12.035156 L 2.660156 12.035156 C 1.191406 12.035156 0 13.230469 0 14.695312 C 0 16.160156 1.191406 17.355469 2.660156 17.355469 L 10.488281 17.355469 C 9.894531 17.820312 9.378906 18.378906 9.109375 19.027344 C 8.8125 19.753906 8.847656 20.515625 9.214844 21.234375 C 9.886719 22.558594 11.503906 23.101562 12.824219 22.449219 L 19.507812 19.148438 C 19.691406 19.054688 24 16.816406 24 12.761719 L 24 8.035156 C 24 4.308594 20.953125 1.273438 17.203125 1.273438 L 12.300781 1.277344 Z M 22.226562 8.035156 L 22.226562 12.761719 C 22.226562 15.679688 18.832031 17.5 18.707031 17.566406 L 12.039062 20.859375 C 11.578125 21.085938 11.03125 20.898438 10.792969 20.429688 C 10.664062 20.171875 10.648438 19.949219 10.75 19.703125 C 11.152344 18.726562 13.085938 17.765625 14.207031 17.390625 L 15.066406 17.105469 L 14.527344 15.582031 L 2.660156 15.582031 C 2.171875 15.582031 1.773438 15.183594 1.773438 14.695312 C 1.773438 14.207031 2.171875 13.808594 2.660156 13.808594 L 12.882812 13.808594 L 12.882812 12.019531 L 8.390625 12.019531 C 7.894531 12.019531 7.445312 11.578125 7.445312 11.089844 C 7.445312 10.585938 7.859375 10.144531 8.332031 10.144531 L 13.175781 10.144531 L 13.175781 8.371094 L 10.105469 8.371094 C 9.617188 8.371094 9.21875 7.976562 9.21875 7.488281 C 9.21875 6.996094 9.617188 6.601562 10.105469 6.601562 L 14.003906 6.601562 L 14.003906 4.828125 L 12.054688 4.828125 C 11.566406 4.828125 11.167969 4.429688 11.167969 3.941406 C 11.167969 3.453125 11.566406 3.054688 12.054688 3.054688 L 13.320312 3.054688 L 13.320312 3.050781 L 17.203125 3.046875 C 19.972656 3.046875 22.226562 5.285156 22.226562 8.035156 Z M 22.226562 8.035156 "/>
</g>
</svg>
